{
  "accessors": [
    {
      "bufferView": 0,
      "componentType": 5126,
      "count": 24,
      "max": [1.0, 1.0, 0.5],
      "min": [-1.0, -1.0, -0.5],
      "type": "VEC3"
    },
    {
      "bufferView": 1,
      "componentType": 5126,
      "count": 24,
      "type": "VEC3"
    },
    {
      "bufferView": 2,
      "componentType": 5126,
      "count": 24,
      "type": "VEC2"
    },
    {
      "bufferView": 3,
      "componentType": 5123,
      "count": 36,
      "type": "SCALAR"
    }
  ],
  "asset": {
    "generator": "AUS VESTS",
    "version": "2.0"
  },
  "bufferViews": [
    {
      "buffer": 0,
      "byteLength": 288,
      "byteOffset": 0,
      "target": 34962
    },
    {
      "buffer": 0,
      "byteLength": 288,
      "byteOffset": 288,
      "target": 34962
    },
    {
      "buffer": 0,
      "byteLength": 192,
      "byteOffset": 576,
      "target": 34962
    },
    {
      "buffer": 0,
      "byteLength": 72,
      "byteOffset": 768,
      "target": 34963
    }
  ],
  "buffers": [
    {
      "byteLength": 840,
      "uri": "vest-model.bin"
    }
  ],
  "materials": [
    {
      "name": "leather",
      "pbrMetallicRoughness": {
        "baseColorFactor": [0.14, 0.14, 0.13, 1.0],
        "metallicFactor": 0.1,
        "roughnessFactor": 0.85
      },
      "extensions": {
        "KHR_materials_specular": {
          "specularColorFactor": [0.2, 0.15, 0.1, 1.0]
        }
      }
    },
    {
      "name": "lining",
      "pbrMetallicRoughness": {
        "baseColorFactor": [0.09, 0.09, 0.09, 1.0],
        "metallicFactor": 0.0,
        "roughnessFactor": 0.95
      }
    }
  ],
  "meshes": [
    {
      "name": "vestBody",
      "primitives": [
        {
          "attributes": {
            "NORMAL": 1,
            "POSITION": 0,
            "TEXCOORD_0": 2
          },
          "indices": 3,
          "material": 0
        }
      ]
    }
  ],
  "nodes": [
    {
      "mesh": 0,
      "name": "vestBody",
      "translation": [0, 0, 0],
      "scale": [1, 1, 1]
    }
  ],
  "scenes": [
    {
      "nodes": [0]
    }
  ]
}